<svg width="755" height="559" viewBox="0 0 755 559" fill="none" xmlns="http://www.w3.org/2000/svg">
<path d="M685.036 21.2798C622.9 41.8574 573.648 81.327 534.26 133.333C526.15 144.078 518.076 154.823 509.862 165.744L513.513 166.201C526.818 167.816 536.296 179.966 534.576 193.274L530.855 223.579C534.997 220.454 540.122 218.803 545.318 218.803C546.301 218.803 547.319 218.838 548.302 218.979L571.261 221.823C566.241 188.007 571.682 171.222 596.325 134.316C597.414 132.665 600.011 133.473 599.906 135.51C598.186 169.396 600.854 198.577 589.796 224.071L604.259 225.861C612.368 226.88 619.284 231.866 622.865 238.995C636.345 233.727 652.599 231.129 672.152 231.129C675.803 231.129 679.349 231.234 682.789 231.445C723.371 188.253 732.112 128.03 741.169 67.8778C748.225 21.2096 729.69 6.49631 685.071 21.2447L685.036 21.2798ZM393.243 129.926C354.803 73.2504 307.27 27.2845 240.887 4.35427C213.786 -4.98639 192.582 -0.667207 185.737 30.761C176.68 72.0214 199.533 148.854 230.496 201.07C232.181 201.07 233.936 201.14 235.691 201.175C259.177 201.913 278.976 206.794 294.527 215.713C301.373 219.646 307.095 224.492 311.659 230.181C312.115 229.408 312.677 228.741 313.238 228.003C317.346 223.052 323.279 219.962 329.703 219.4L336.583 218.768C328.579 196.575 328.018 172.978 328.685 149.099C328.825 143.797 335.67 141.725 338.795 146.009C354.697 167.359 353.188 192.221 349.923 217.574L369.161 215.889C369.898 215.818 370.6 215.783 371.337 215.783C374.497 215.783 377.516 216.415 380.289 217.504C388.363 212.904 397.35 210.165 407.109 209.287C409.11 209.111 411.041 209.041 412.937 209.041C416.868 209.041 420.695 209.392 424.276 210.165C428.102 210.973 431.507 212.096 434.421 213.536L436.597 195.908C421.783 172.978 407.706 151.277 393.208 129.926H393.243Z" fill="#EF8454"/>
<path d="M388.293 444.77C374.497 441.504 365.264 446.772 360.384 460.502C359.788 462.187 359.261 464.048 358.805 465.98L358.348 467.806C359.682 480.763 370.565 490.806 383.834 490.806C392.4 490.806 399.983 486.557 404.617 480.131L405.354 477.041C406.267 473.003 406.758 469.351 406.688 466.12C406.512 454.743 400.404 447.614 388.293 444.77Z" fill="#4E5D75"/>
<path d="M563.081 466.015C563.045 465.067 563.01 464.154 562.905 463.311C561.536 446.912 553.216 438.941 538.051 439.503C523.342 440.029 515.794 448.211 515.268 463.978C515.232 465.207 515.232 466.506 515.268 467.841L515.338 469C518.883 478.902 528.362 485.96 539.455 485.96C550.548 485.96 559.465 479.323 563.221 469.842L563.081 466.05V466.015Z" fill="#4E5D75"/>
<path d="M406.688 466.12C406.758 469.351 406.267 473.003 405.354 477.041L404.617 480.096L402.159 490.525C397.982 508.153 388.082 515.141 372.496 511.454C357.049 507.802 351.432 497.127 355.61 479.499L358.348 467.841L358.805 465.98C359.261 464.048 359.788 462.187 360.384 460.502C366.001 456.463 372.952 454.04 380.464 454.04C390.961 454.04 400.369 458.711 406.688 466.12Z" fill="white"/>
<path d="M540.613 507.942C524.746 508.504 516.496 499.76 515.829 481.606L515.373 468.964L515.303 467.806C515.268 466.471 515.268 465.172 515.303 463.943C521.516 457.833 530.012 454.04 539.49 454.04C548.968 454.04 556.797 457.552 562.94 463.311C563.046 464.189 563.081 465.067 563.116 466.015L563.256 469.807L563.642 479.85C564.309 497.97 556.621 507.38 540.613 507.942Z" fill="white"/>
<path d="M153.265 249.318L152.913 246.158C152.457 242.155 151.685 238.327 150.561 234.675C148.841 228.987 146.314 223.79 143.014 219.049C137.572 211.289 130.551 205.459 121.986 201.632C113.385 197.804 103.942 196.47 93.656 197.664L0.522461 208.198L19.2684 374.258L72.6281 368.254L66.555 314.633L106.399 310.138C116.685 308.944 125.602 305.538 133.114 299.884C139.574 295.003 144.558 288.963 148.104 281.695C148.666 280.536 149.227 279.342 149.684 278.113C153.264 269.229 154.458 259.642 153.3 249.318H153.265ZM96.2889 267.473C93.7613 270.739 89.7244 272.635 84.1076 273.267L62.1318 275.76L58.2703 241.488L80.2461 239.03C85.8629 238.362 90.2159 239.31 93.3753 241.769C96.5348 244.297 98.3601 248.089 98.9569 253.251L99.1675 255.183C99.7292 260.169 98.7814 264.277 96.324 267.473H96.2889Z" fill="#4E5D75"/>
<path d="M305.831 329.03C303.269 328.925 301.338 327.977 300.074 326.186C298.845 324.395 298.319 322.077 298.389 319.303L299.864 270.598L299.934 269.299C300.39 254.551 294.563 243.735 282.486 236.747C273.113 231.41 261.564 227.933 247.732 226.388C243.695 225.896 239.448 225.58 234.989 225.475C213.47 224.773 196.83 227.828 185.035 234.57C181.805 236.431 179.032 238.433 176.68 240.68C170.361 246.65 167.026 254.059 166.745 262.943C166.71 264.383 166.78 265.507 166.886 266.349L177.417 266.665L214.488 267.789V266.806C214.628 262.943 216.524 260.169 220.245 258.483C223.931 256.833 228.284 256.096 233.304 256.236C238.851 256.412 243.274 257.816 246.679 260.555C250.084 263.294 251.699 267.087 251.559 272.108L251.348 278.394C230.952 277.762 214.418 278.464 201.71 280.501C189.037 282.573 179.207 286.751 172.292 293.072C165.341 299.428 161.69 308.839 161.304 321.305C160.567 345.253 175.24 357.719 205.325 358.667C215.541 358.948 224.493 357.789 232.181 355.121C239.869 352.452 246.855 348.765 253.174 344.094C255.28 349.186 259.317 353.224 265.32 356.279C271.288 359.264 278.941 360.95 288.384 361.231C293.229 361.371 297.511 361.16 301.268 360.528C305.024 359.896 307.903 359.264 309.939 358.597C312.01 357.93 313.273 357.438 313.765 357.157L314.643 329.206L305.901 328.96L305.831 329.03ZM250.225 312.21C250.049 317.231 247.557 321.34 242.677 324.606C237.798 327.871 232.181 329.381 225.862 329.206C214.874 328.854 209.503 324.641 209.749 316.564C209.889 311.543 213.294 307.645 219.929 304.836C226.564 302.061 236.815 300.868 250.541 301.289L250.225 312.21Z" fill="#4E5D75"/>
<path d="M427.4 275.55L426.733 275.62L411.919 276.919C401.949 277.832 394.963 281.028 390.996 286.611C387.029 292.124 385.449 300.025 386.362 310.173L391.452 367.06L343.323 371.344L334.02 267.473L331.914 243.56L371.337 240.083L376.217 259.116C378.464 251.46 382.571 245.421 388.504 241.066C394.471 236.747 401.352 234.219 409.286 233.481C412.972 233.165 416.342 233.341 419.291 233.973C422.31 234.57 423.819 234.956 423.819 235.132L426.171 261.398L427.119 272.459L427.4 275.55Z" fill="#4E5D75"/>
<path d="M577.334 357.86L586.601 377.454L581.16 376.752H581.125L532.153 370.642L510.81 323.693L492.204 337.809L488.764 365.269L440.81 359.299L450.148 284.118L451.552 272.811L453.343 258.483L457.169 227.547L462.54 184.285L493.046 188.077L510.529 190.255L500.067 274.391L498.523 286.716L533.698 253.883L545.318 243.068L563.607 245.35L601.24 250.021L547.845 295.53L577.334 357.86Z" fill="#4E5D75"/>
<path d="M746.224 356.736C743.626 356.736 741.695 355.858 740.396 354.102C739.098 352.312 738.431 350.064 738.431 347.29V297.216C738.431 282.467 732.252 271.827 719.965 265.296C707.679 258.729 691.741 255.464 672.117 255.464C664.886 255.464 658.216 255.85 652.107 256.693C642.418 257.922 634.169 260.204 627.358 263.505C625.673 264.348 624.023 265.191 622.514 266.139C610.929 273.267 605.137 282.924 605.137 295.074C605.137 296.513 605.242 297.672 605.382 298.48H652.985V297.497C652.985 293.634 654.775 290.754 658.391 288.999C662.042 287.208 666.395 286.33 671.415 286.33C676.891 286.33 681.42 287.629 684.895 290.193C688.406 292.791 690.126 296.619 690.126 301.605V307.926C669.695 307.926 653.231 309.12 640.558 311.578C627.92 314.001 618.266 318.496 611.526 325.062C605.066 331.348 601.696 340.407 601.486 352.171C601.451 352.628 601.451 353.119 601.451 353.576C601.451 364.497 604.61 372.924 610.824 378.859C618.301 385.987 630.237 389.569 646.631 389.569C656.811 389.569 665.728 388.094 673.346 385.179C680.928 382.265 687.844 378.332 693.988 373.486C696.269 378.508 700.412 382.44 706.485 385.285C712.558 388.094 720.281 389.534 729.69 389.534C734.534 389.534 738.817 389.147 742.573 388.41C746.294 387.673 749.138 386.97 751.174 386.233C753.21 385.495 754.509 384.969 754.965 384.653V356.701H746.224V356.736ZM690.126 341.707C690.126 346.728 687.739 350.942 682.964 354.313C678.19 357.684 672.644 359.405 666.29 359.405C655.302 359.405 649.826 355.402 649.826 347.29C649.826 342.269 653.09 338.265 659.62 335.246C666.184 332.261 676.365 330.716 690.126 330.716V341.672V341.707Z" fill="#4E5D75"/>
<path d="M306.007 538.879L288.665 512.191L266.583 478.2C274.201 474.618 280.31 469.912 284.908 464.118C286.418 462.152 287.752 460.15 288.945 457.938C293.333 449.897 295.334 441.258 294.913 431.988C294.878 431.215 294.808 430.408 294.738 429.635C293.93 420.435 291.052 412.113 286.102 404.668C281.117 397.224 274.201 391.605 265.355 387.708C256.473 383.88 246.082 382.475 234.146 383.529L132.307 392.483L146.91 559L200.411 554.294L195.074 493.545L214.909 491.789L249.733 549.905L309.728 544.673L306.007 538.879ZM237.13 448.001C234.497 451.231 231.092 453.057 226.88 453.408L191.81 456.498L189.107 425.773L224.177 422.682C228.354 422.331 232.075 423.49 235.2 426.124C238.359 428.757 240.114 432.269 240.5 436.588C240.887 440.977 239.763 444.77 237.13 448.001Z" fill="#4E5D75"/>
<path d="M406.688 466.12C406.758 469.351 406.267 473.003 405.354 477.041L404.617 480.096C399.983 486.557 392.4 490.806 383.834 490.806C370.565 490.806 359.682 480.763 358.348 467.841L358.805 465.98C359.261 464.048 359.788 462.187 360.384 460.502C365.264 446.772 374.497 441.504 388.293 444.77C400.404 447.614 406.512 454.743 406.688 466.12Z" fill="#2D3142"/>
<path d="M563.256 469.807C559.5 479.288 550.232 485.925 539.49 485.925C528.748 485.925 518.918 478.867 515.373 468.964L515.303 467.806C515.268 466.471 515.268 465.172 515.303 463.943C515.794 448.176 523.377 439.994 538.086 439.468C553.251 438.941 561.571 446.877 562.94 463.276C563.046 464.154 563.081 465.031 563.116 465.98L563.256 469.772V469.807Z" fill="#2D3142"/>
<path d="M446.076 445.788C445.268 444.419 444.461 443.084 443.548 441.785C433.649 427.669 417.746 418.047 395.876 412.85C373.97 407.688 355.47 409.128 340.374 417.24C331.633 421.91 324.507 428.898 319.136 438.203C315.274 444.805 312.29 452.601 310.219 461.485C309.271 465.558 308.534 469.456 308.113 473.249C306.954 483.678 307.797 493.053 310.64 501.411C312.255 506.116 314.467 510.506 317.346 514.579C319.487 517.74 321.979 520.619 324.823 523.253C334.582 532.628 347.957 539.3 364.948 543.374C386.818 548.536 405.354 547.096 420.519 538.914C432.911 532.277 441.933 521.216 447.515 505.8C448.814 502.324 449.867 498.672 450.815 494.809C455.379 475.496 453.799 459.167 446.076 445.788ZM405.354 477.041L404.617 480.096L402.159 490.525C397.982 508.153 388.082 515.141 372.496 511.454C357.049 507.802 351.432 497.127 355.61 479.499L358.348 467.841L358.805 465.98C359.261 464.048 359.788 462.187 360.384 460.502C365.264 446.772 374.497 441.504 388.293 444.77C400.404 447.614 406.512 454.743 406.688 466.12C406.758 469.351 406.267 473.003 405.354 477.041Z" fill="#4E5D75"/>
<path d="M595.974 427.142C594.324 425.246 592.464 423.49 590.498 421.875C577.193 410.919 559.325 405.897 536.822 406.74C514.355 407.583 496.908 413.904 484.551 425.702C479.145 430.864 475.002 436.974 472.159 444.138C468.438 453.268 466.788 464.048 467.244 476.444C467.665 487.47 469.631 497.092 473.142 505.344C476.687 513.526 481.742 520.303 488.272 525.746C501.507 536.596 519.34 541.618 541.842 540.74C564.31 539.897 581.792 533.541 594.219 521.637C599.906 516.265 604.154 509.804 607.067 502.359C610.613 493.405 612.122 482.94 611.666 471.001C610.964 452.46 605.769 437.817 596.009 427.142H595.974ZM540.614 507.942C524.746 508.504 516.496 499.761 515.829 481.606L515.373 468.964L515.303 467.806C515.268 466.471 515.268 465.172 515.303 463.943C515.794 448.176 523.377 439.994 538.086 439.468C553.251 438.941 561.571 446.877 562.941 463.276C563.046 464.154 563.081 465.032 563.116 465.98L563.256 469.772L563.642 479.815C564.309 497.935 556.621 507.345 540.614 507.907V507.942Z" fill="#4E5D75"/>
</svg>
