<svg width="755" height="559" viewBox="0 0 755 559" fill="none" xmlns="http://www.w3.org/2000/svg">
<path d="M684.548 21.2798C622.412 41.8574 573.16 81.327 533.772 133.333C525.663 144.078 517.589 154.823 509.374 165.744L513.025 166.201C526.33 167.816 535.808 179.966 534.088 193.274L530.367 223.579C534.509 220.454 539.635 218.803 544.83 218.803C545.813 218.803 546.831 218.838 547.814 218.979L570.773 221.823C565.753 188.007 571.194 171.222 595.838 134.316C596.926 132.665 599.524 133.473 599.418 135.51C597.698 169.396 600.366 198.577 589.308 224.071L603.772 225.861C611.881 226.88 618.796 231.866 622.377 238.995C635.857 233.727 652.111 231.129 671.665 231.129C675.316 231.129 678.861 231.234 682.301 231.445C722.883 188.253 731.624 128.03 740.681 67.8778C747.737 21.2096 729.202 6.49631 684.583 21.2447L684.548 21.2798ZM392.755 129.926C354.315 73.2153 306.783 27.2845 240.434 4.35427C213.333 -4.98639 192.13 -0.667207 185.284 30.761C176.227 72.0214 199.081 148.854 230.043 201.07C231.728 201.07 233.484 201.14 235.239 201.175C258.724 201.913 278.523 206.794 294.075 215.713C300.92 219.646 306.642 224.492 311.206 230.181C311.662 229.408 312.224 228.741 312.786 228.003C316.893 223.052 322.826 219.962 329.25 219.4L336.131 218.768C328.127 196.575 327.565 172.978 328.232 149.099C328.372 143.797 335.218 141.725 338.342 146.009C354.245 167.359 352.735 192.221 349.471 217.574L368.708 215.889C369.445 215.818 370.147 215.783 370.885 215.783C374.044 215.783 377.063 216.415 379.836 217.504C387.911 212.904 396.897 210.165 406.657 209.287C408.658 209.111 410.588 209.041 412.484 209.041C416.416 209.041 420.242 209.392 423.823 210.165C427.65 210.973 431.055 212.096 433.968 213.536L436.145 195.908C421.331 172.978 407.253 151.277 392.755 129.926Z" fill="#4E5D75"/>
<path d="M387.771 444.77C374.01 441.504 364.742 446.772 359.862 460.502C359.301 462.187 358.739 464.048 358.283 465.98L357.861 467.771C359.195 480.728 370.078 490.771 383.348 490.771C391.913 490.771 399.496 486.557 404.13 480.096L404.867 476.971C405.815 472.968 406.271 469.316 406.201 466.05C406.025 454.708 399.917 447.579 387.806 444.735L387.771 444.77Z" fill="#4E5D75"/>
<path d="M324.301 523.288C321.492 520.654 319 517.74 316.823 514.614C313.98 510.541 311.768 506.151 310.153 501.446L324.336 523.288H324.301Z" fill="#4E5D75"/>
<path d="M324.301 523.288C321.492 520.654 319 517.74 316.823 514.614C313.98 510.541 311.768 506.151 310.153 501.446L324.336 523.288H324.301Z" fill="#4E5D75"/>
<path d="M562.628 466.015C562.593 465.067 562.558 464.154 562.453 463.311C561.084 446.912 552.764 438.941 537.599 439.503C522.89 440.029 515.342 448.211 514.815 463.978C514.78 465.207 514.78 466.506 514.815 467.841L514.886 469C518.431 478.902 527.91 485.96 539.003 485.96C550.096 485.96 559.013 479.323 562.769 469.842L562.628 466.05V466.015Z" fill="#4E5D75"/>
<path d="M406.166 466.12C406.236 469.386 405.78 473.038 404.832 477.041L404.095 480.131L401.637 490.56C397.46 508.188 387.525 515.176 371.973 511.489C356.527 507.837 350.91 497.162 355.088 479.534L357.826 467.876L358.247 466.015C358.704 464.048 359.265 462.222 359.827 460.537C365.479 456.499 372.395 454.076 379.907 454.076C390.404 454.076 399.777 458.746 406.096 466.155L406.166 466.12Z" fill="white"/>
<path d="M540.126 507.942C524.259 508.504 516.009 499.761 515.342 481.606L514.886 468.965L514.815 467.806C514.78 466.471 514.78 465.172 514.815 463.943C521.029 457.833 529.524 454.041 539.003 454.041C548.481 454.041 556.31 457.552 562.453 463.311C562.558 464.189 562.593 465.067 562.628 466.015L562.769 469.807L563.155 479.85C563.822 497.97 556.134 507.381 540.126 507.942Z" fill="white"/>
<path d="M152.777 249.318L152.426 246.158C151.97 242.155 151.197 238.327 150.074 234.675C148.354 228.987 145.826 223.79 142.526 219.049C137.085 211.289 130.064 205.459 121.499 201.632C112.898 197.804 103.455 196.47 93.1688 197.664L0 208.198L18.7461 374.259L72.1058 368.254L66.0326 314.633L105.877 310.138C116.163 308.944 125.079 305.538 132.592 299.884C139.051 295.003 144.036 288.964 147.582 281.695C148.143 280.536 148.705 279.342 149.161 278.113C152.742 269.229 153.936 259.642 152.777 249.318ZM95.8017 267.473C93.2741 270.739 89.237 272.635 83.6202 273.267L61.6445 275.76L57.7829 241.488L79.7587 239.03C85.3755 238.363 89.7285 239.311 92.8879 241.769C96.0474 244.297 97.8729 248.089 98.4696 253.251L98.6803 255.183C99.242 260.169 98.2941 264.278 95.8368 267.473H95.8017Z" fill="#4E5D75"/>
<path d="M305.344 329.03C302.781 328.925 300.85 327.977 299.587 326.186C298.358 324.395 297.831 322.077 297.902 319.303L299.376 270.598L299.446 269.299C299.903 254.551 294.075 243.735 281.999 236.747C272.626 231.41 261.076 227.933 247.245 226.388C243.208 225.897 238.96 225.581 234.502 225.475C212.983 224.773 196.343 227.828 184.547 234.57C181.318 236.431 178.545 238.433 176.192 240.68C169.874 246.65 166.539 254.059 166.258 262.943C166.223 264.383 166.293 265.507 166.398 266.349L176.93 266.665L214.001 267.789V266.806C214.141 262.943 216.037 260.169 219.758 258.484C223.444 256.833 227.797 256.096 232.817 256.236C238.364 256.412 242.787 257.816 246.192 260.555C249.597 263.294 251.212 267.087 251.072 272.108L250.861 278.394C230.465 277.762 213.93 278.464 201.222 280.501C188.549 282.573 178.72 286.751 171.804 293.072C164.854 299.428 161.203 308.839 160.816 321.305C160.079 345.253 174.753 357.719 204.838 358.667C215.054 358.948 224.006 357.79 231.694 355.121C239.382 352.452 246.367 348.765 252.686 344.095C254.793 349.186 258.83 353.225 264.833 356.28C270.801 359.264 278.453 360.95 287.897 361.231C292.741 361.371 297.024 361.161 300.78 360.529C304.537 359.896 307.415 359.264 309.451 358.597C311.522 357.93 312.786 357.438 313.278 357.157L314.155 329.206L305.414 328.96L305.344 329.03ZM249.738 312.21C249.562 317.231 247.07 321.34 242.19 324.606C237.31 327.871 231.694 329.381 225.375 329.206C214.387 328.855 209.016 324.641 209.261 316.564C209.402 311.543 212.807 307.645 219.442 304.836C226.077 302.062 236.327 300.868 250.054 301.289L249.738 312.21Z" fill="#4E5D75"/>
<path d="M426.912 275.55L426.245 275.62L411.431 276.919C401.461 277.832 394.475 281.028 390.509 286.611C386.542 292.124 384.962 300.025 385.875 310.173L390.965 367.06L342.836 371.344L333.533 267.473L331.427 243.56L370.85 240.083L375.729 259.116C377.976 251.46 382.083 245.421 388.016 241.066C393.984 236.747 400.865 234.219 408.798 233.481C412.484 233.165 415.854 233.341 418.803 233.973C421.822 234.57 423.332 234.956 423.332 235.132L425.684 261.398L426.667 272.459L426.912 275.55Z" fill="#4E5D75"/>
<path d="M576.846 357.86L586.114 377.454L580.672 376.752H580.637L531.666 370.642L510.322 323.693L491.716 337.809L488.276 365.269L440.322 359.299L449.66 284.118L451.1 272.811L452.855 258.483L456.681 227.547L462.087 184.285L492.559 188.077L510.041 190.255L499.58 274.391L498.035 286.716L533.21 253.883L544.83 243.068L563.12 245.35L600.752 250.021L547.358 295.53L576.846 357.86Z" fill="#4E5D75"/>
<path d="M745.736 356.736C743.138 356.736 741.208 355.858 739.909 354.102C738.61 352.312 737.943 350.064 737.943 347.29V297.216C737.943 282.467 731.764 271.827 719.477 265.296C707.191 258.729 691.253 255.464 671.629 255.464C664.398 255.464 657.728 255.85 651.619 256.693C641.93 257.922 633.681 260.204 626.87 263.505C625.185 264.348 623.535 265.191 622.026 266.139C610.441 273.267 604.649 282.924 604.649 295.074C604.649 296.513 604.754 297.672 604.895 298.48H652.497V297.497C652.497 293.634 654.287 290.754 657.903 288.999C661.554 287.208 665.907 286.33 670.927 286.33C676.404 286.33 680.932 287.629 684.408 290.193C687.918 292.791 689.638 296.619 689.638 301.605V307.926C669.207 307.926 652.743 309.12 640.07 311.578C627.432 314.001 617.778 318.496 611.038 325.062C604.579 331.348 601.209 340.407 600.998 352.171C600.963 352.628 600.963 353.119 600.963 353.576C600.963 364.497 604.122 372.924 610.336 378.859C617.813 385.987 629.749 389.569 646.143 389.569C656.324 389.569 665.24 388.094 672.858 385.179C680.441 382.265 687.356 378.332 693.5 373.486C695.782 378.508 699.924 382.44 705.997 385.285C712.07 388.094 719.793 389.534 729.202 389.534C734.046 389.534 738.329 389.147 742.085 388.41C745.806 387.673 748.65 386.97 750.686 386.233C752.722 385.495 754.021 384.969 754.477 384.653V356.701H745.736V356.736ZM689.638 341.707C689.638 346.728 687.251 350.942 682.477 354.313C677.703 357.684 672.156 359.405 665.802 359.405C654.814 359.405 649.338 355.402 649.338 347.29C649.338 342.269 652.602 338.265 659.132 335.246C665.697 332.261 675.877 330.716 689.638 330.716V341.672V341.707Z" fill="#4E5D75"/>
<path d="M305.519 538.879L288.177 512.191L266.096 478.2C273.714 474.618 279.822 469.913 284.421 464.119C285.93 462.152 287.264 460.151 288.458 457.938C292.846 449.897 294.847 441.259 294.426 431.988C294.391 431.216 294.321 430.408 294.25 429.635C293.443 420.435 290.564 412.113 285.615 404.668C280.63 397.224 273.714 391.606 264.867 387.708C255.986 383.88 245.595 382.476 233.659 383.529L131.819 392.483L146.423 559L199.923 554.295L194.587 493.545L214.422 491.789L249.246 549.905L309.24 544.673L305.519 538.879ZM236.643 448.001C234.01 451.231 230.605 453.057 226.392 453.408L191.322 456.499L188.619 425.773L223.689 422.683C227.867 422.331 231.588 423.49 234.712 426.124C237.872 428.757 239.627 432.269 240.013 436.588C240.399 440.978 239.276 444.77 236.643 448.001Z" fill="#4E5D75"/>
<path d="M406.166 466.12C406.236 469.386 405.78 473.038 404.832 477.041L404.095 480.131C399.461 486.592 391.878 490.841 383.312 490.841C370.043 490.841 359.16 480.798 357.826 467.876L358.247 466.015C358.704 464.048 359.265 462.222 359.827 460.537C364.707 446.807 373.974 441.539 387.736 444.805C399.847 447.65 405.955 454.778 406.131 466.12H406.166Z" fill="#2D3142"/>
<path d="M562.769 469.807C559.013 479.288 549.745 485.925 539.003 485.925C528.261 485.925 518.431 478.867 514.886 468.965L514.815 467.806C514.78 466.471 514.78 465.172 514.815 463.943C515.307 448.176 522.89 439.994 537.599 439.468C552.764 438.941 561.084 446.877 562.453 463.276C562.558 464.154 562.593 465.032 562.628 465.98L562.769 469.772V469.807Z" fill="#2D3142"/>
<path d="M310.153 501.446C311.768 506.151 313.98 510.506 316.823 514.614C319 517.775 321.492 520.654 324.301 523.288L310.118 501.446H310.153Z" fill="#4E5D75"/>
<path d="M445.588 445.788C444.781 444.419 443.973 443.084 443.06 441.785C433.161 427.669 417.258 418.082 395.388 412.85C373.482 407.688 354.982 409.128 339.922 417.24C331.181 421.945 324.054 428.933 318.683 438.203C314.822 444.805 311.838 452.601 309.767 461.485C308.819 465.558 308.117 469.491 307.66 473.284C306.502 483.713 307.344 493.054 310.188 501.446L324.37 523.288C334.129 532.664 347.504 539.335 364.495 543.374C386.401 548.536 404.901 547.096 420.102 538.914C432.494 532.277 441.516 521.216 447.097 505.8C448.396 502.324 449.45 498.672 450.397 494.809C454.961 475.496 453.381 459.167 445.658 445.788H445.588ZM404.866 477.041L404.129 480.131L401.672 490.56C397.494 508.188 387.559 515.176 372.008 511.489C356.562 507.837 350.945 497.162 355.122 479.534L357.86 467.876L358.282 466.015C358.738 464.048 359.3 462.222 359.861 460.537C364.741 446.807 374.009 441.539 387.77 444.805C399.881 447.649 405.989 454.778 406.165 466.12C406.235 469.386 405.779 473.038 404.831 477.041H404.866Z" fill="#4E5D75"/>
<path d="M595.487 427.142C593.837 425.246 591.977 423.49 590.011 421.875C576.706 410.919 558.837 405.897 536.335 406.74C513.868 407.583 496.421 413.904 484.064 425.702C478.657 430.864 474.515 436.974 471.672 444.138C467.95 453.268 466.3 464.048 466.757 476.444C467.178 487.47 469.144 497.092 472.654 505.344C476.2 513.526 481.255 520.303 487.785 525.746C501.019 536.596 518.853 541.618 541.355 540.74C563.822 539.897 581.305 533.541 593.732 521.637C599.419 516.265 603.666 509.804 606.58 502.359C610.126 493.405 611.635 482.94 611.179 471.001C610.477 452.46 605.281 437.817 595.522 427.142H595.487ZM540.126 507.942C524.259 508.504 516.009 499.761 515.342 481.606L514.886 468.964L514.816 467.806C514.78 466.471 514.78 465.172 514.816 463.943C515.307 448.176 522.89 439.994 537.599 439.468C552.764 438.941 561.084 446.877 562.453 463.276C562.558 464.154 562.594 465.032 562.629 465.98L562.769 469.772L563.155 479.815C563.822 497.935 556.134 507.345 540.126 507.907V507.942Z" fill="#4E5D75"/>
</svg>
