<svg width="76" height="56" viewBox="0 0 76 56" fill="none" xmlns="http://www.w3.org/2000/svg">
<path d="M68.5738 2.13191C62.3491 4.19334 57.4151 8.14735 53.4693 13.3572C52.6569 14.4337 51.848 15.5101 51.0251 16.6041L51.3909 16.6499C52.7237 16.8117 53.6733 18.0288 53.5009 19.3621L53.1282 22.398C53.5431 22.0849 54.0566 21.9195 54.5771 21.9195C54.6755 21.9195 54.7775 21.923 54.876 21.9371L57.176 22.2221C56.6731 18.8344 57.2182 17.1529 59.6869 13.4557C59.796 13.2904 60.0562 13.3713 60.0457 13.5753C59.8733 16.97 60.1406 19.8933 59.0328 22.4472L60.4817 22.6266C61.2941 22.7286 61.9869 23.2282 62.3456 23.9423C63.6961 23.4146 65.3243 23.1543 67.2832 23.1543C67.6489 23.1543 68.0041 23.1648 68.3488 23.1859C72.4141 18.859 73.2898 12.826 74.1972 6.80003C74.904 2.12487 73.0472 0.650913 68.5774 2.12839L68.5738 2.13191ZM39.3424 13.016C35.4915 7.33825 30.7298 2.73345 24.0796 0.436327C21.3646 -0.499407 19.2405 -0.0667176 18.5548 3.08171C17.6474 7.21513 19.9368 14.9121 23.0386 20.143C23.2074 20.143 23.3833 20.1501 23.5591 20.1536C25.9118 20.2275 27.8953 20.7164 29.4532 21.61C30.139 22.004 30.7122 22.4894 31.1694 23.0593C31.2151 22.9819 31.2714 22.9151 31.3277 22.8412C31.7391 22.3452 32.3335 22.0356 32.977 21.9793L33.6663 21.916C32.8645 19.6928 32.8082 17.3288 32.875 14.9367C32.8891 14.4055 33.5749 14.198 33.8879 14.6271C35.481 16.766 35.3298 19.2566 35.0027 21.7964L36.9299 21.6276C37.0038 21.6205 37.0741 21.617 37.1479 21.617C37.4644 21.617 37.7669 21.6803 38.0447 21.7894C38.8536 21.3285 39.7539 21.0542 40.7315 20.9662C40.932 20.9486 41.1254 20.9416 41.3153 20.9416C41.7092 20.9416 42.0925 20.9768 42.4512 21.0542C42.8346 21.1351 43.1757 21.2476 43.4676 21.3919L43.6856 19.6259C42.2015 17.3288 40.7913 15.1548 39.3389 13.016H39.3424Z" fill="#EF8454"/>
<path d="M38.8461 44.5566C37.464 44.2294 36.5391 44.7571 36.0503 46.1326C35.9905 46.3014 35.9378 46.4879 35.892 46.6814L35.8463 46.8643C35.98 48.1623 37.0702 49.1684 38.3995 49.1684C39.2576 49.1684 40.0172 48.7428 40.4814 48.099L40.5553 47.7895C40.6467 47.3849 40.696 47.0191 40.6889 46.6954C40.6713 45.5557 40.0594 44.8415 38.8461 44.5566Z" fill="white"/>
<path d="M56.356 46.685C56.3524 46.59 56.3489 46.4985 56.3384 46.4141C56.2012 44.7713 55.3677 43.9727 53.8485 44.029C52.375 44.0818 51.6189 44.9014 51.5661 46.4809C51.5626 46.6041 51.5626 46.7342 51.5661 46.8679L51.5731 46.984C51.9283 47.976 52.8779 48.6831 53.9892 48.6831C55.1005 48.6831 55.9937 48.0182 56.37 47.0684L56.356 46.6885V46.685Z" fill="white"/>
<path d="M40.6887 46.6955C40.6958 47.0191 40.6465 47.385 40.5551 47.7895L40.4813 48.0956L40.2351 49.1403C39.8166 50.9063 38.8249 51.6063 37.2634 51.237C35.716 50.8711 35.1533 49.8017 35.5718 48.0358L35.8461 46.8678L35.8919 46.6814C35.9376 46.4879 35.9903 46.3015 36.0501 46.1326C36.6128 45.7281 37.3091 45.4854 38.0617 45.4854C39.1132 45.4854 40.0557 45.9532 40.6887 46.6955Z" fill="#393E4D"/>
<path d="M54.1057 50.8852C52.5161 50.9415 51.6897 50.0655 51.6229 48.2468L51.5772 46.9804L51.5701 46.8643C51.5666 46.7307 51.5666 46.6005 51.5701 46.4774C52.1926 45.8653 53.0437 45.4854 53.9932 45.4854C54.9427 45.4854 55.727 45.8371 56.3424 46.4141C56.353 46.502 56.3565 46.5899 56.36 46.6849L56.374 47.0648L56.4127 48.0709C56.4795 49.8861 55.7094 50.8289 54.1057 50.8852Z" fill="#393E4D"/>
<path d="M15.3015 24.9765L15.2663 24.6599C15.2206 24.2589 15.1432 23.8754 15.0307 23.5096C14.8584 22.9397 14.6052 22.419 14.2746 21.9441C13.7295 21.1667 13.0261 20.5828 12.168 20.1993C11.3064 19.8159 10.3604 19.6822 9.32999 19.8018L0 20.8571L1.87795 37.4928L7.22345 36.8913L6.61505 31.5196L10.6066 31.0693C11.637 30.9497 12.5303 30.6085 13.2829 30.0421C13.93 29.5531 14.4293 28.9481 14.7845 28.2199C14.8408 28.1038 14.8971 27.9842 14.9428 27.8611C15.3015 26.9711 15.4211 26.0107 15.305 24.9765H15.3015ZM9.59375 26.7952C9.34054 27.1223 8.93612 27.3123 8.37344 27.3756L6.17194 27.6254L5.7851 24.192L7.9866 23.9458C8.54929 23.8789 8.98536 23.9739 9.30187 24.2202C9.61838 24.4734 9.80124 24.8534 9.86103 25.3705L9.88213 25.564C9.9384 26.0635 9.84344 26.4751 9.59727 26.7952H9.59375Z" fill="white"/>
<path d="M30.5855 32.962C30.3288 32.9514 30.1354 32.8565 30.0088 32.677C29.8857 32.4976 29.833 32.2655 29.84 31.9876L29.9877 27.1084L29.9947 26.9782C30.0404 25.5007 29.4567 24.4172 28.2469 23.7172C27.3079 23.1825 26.1509 22.8342 24.7653 22.6795C24.3609 22.6302 23.9353 22.5985 23.4887 22.588C21.3329 22.5176 19.666 22.8237 18.4843 23.4991C18.1608 23.6855 17.883 23.8861 17.6473 24.1112C17.0143 24.7092 16.6802 25.4515 16.6521 26.3415C16.6486 26.4857 16.6556 26.5983 16.6662 26.6827L17.7212 26.7144L21.4349 26.8269V26.7284C21.449 26.3415 21.6389 26.0636 22.0116 25.8947C22.3809 25.7294 22.817 25.6555 23.3199 25.6696C23.8755 25.6872 24.3187 25.8279 24.6598 26.1023C25.0009 26.3767 25.1627 26.7566 25.1486 27.2596L25.1275 27.8893C23.0843 27.826 21.4279 27.8964 20.1548 28.1004C18.8852 28.3079 17.9005 28.7266 17.2077 29.3598C16.5114 29.9965 16.1457 30.9393 16.107 32.1881C16.0331 34.5872 17.5031 35.836 20.517 35.931C21.5404 35.9592 22.4372 35.8431 23.2074 35.5757C23.9775 35.3084 24.6774 34.939 25.3104 34.4711C25.5214 34.9812 25.9258 35.3857 26.5272 35.6918C27.125 35.9908 27.8917 36.1597 28.8377 36.1878C29.323 36.2019 29.7521 36.1808 30.1284 36.1175C30.5047 36.0541 30.7931 35.9908 30.997 35.924C31.2045 35.8571 31.3311 35.8079 31.3803 35.7797L31.4683 32.9796L30.5926 32.9549L30.5855 32.962ZM25.015 31.277C24.9974 31.78 24.7477 32.1916 24.2589 32.5187C23.77 32.8459 23.2074 32.9972 22.5743 32.9796C21.4736 32.9444 20.9355 32.5223 20.9601 31.7132C20.9742 31.2101 21.3153 30.8196 21.98 30.5382C22.6447 30.2603 23.6716 30.1407 25.0466 30.1829L25.015 31.277Z" fill="white"/>
<path d="M42.7636 27.6042L42.6968 27.6113L41.2127 27.7414C40.214 27.8329 39.5141 28.153 39.1167 28.7123C38.7193 29.2646 38.5611 30.0561 38.6525 31.0728L39.1625 36.7716L34.3409 37.2008L33.409 26.7951L33.198 24.3995L37.1474 24.0512L37.6362 25.9579C37.8613 25.191 38.2727 24.5859 38.8671 24.1497C39.4649 23.7171 40.1542 23.4638 40.949 23.3899C41.3182 23.3582 41.6558 23.3758 41.9513 23.4391C42.2537 23.4989 42.4049 23.5376 42.4049 23.5552L42.6406 26.1865L42.7355 27.2947L42.7636 27.6042Z" fill="white"/>
<path d="M57.7838 35.85L58.7122 37.813L58.1671 37.7426H58.1636L53.2577 37.1305L51.1195 32.4272L49.2556 33.8414L48.911 36.5923L44.1071 35.9943L45.0425 28.4627L45.1832 27.3299L45.3625 25.8947L45.7459 22.7955L46.2839 18.4615L49.34 18.8415L51.0914 19.0596L50.0434 27.4882L49.8886 28.723L53.4124 25.4338L54.5765 24.3503L56.4087 24.579L60.1787 25.0469L54.8297 29.6059L57.7838 35.85Z" fill="white"/>
<path d="M74.7036 35.7375C74.4434 35.7375 74.25 35.6496 74.1198 35.4737C73.9897 35.2943 73.9229 35.0691 73.9229 34.7912V29.7748C73.9229 28.2974 73.3039 27.2315 72.0731 26.5771C70.8422 25.9193 69.2456 25.5922 67.2797 25.5922C66.5553 25.5922 65.8871 25.6309 65.2751 25.7153C64.3045 25.8384 63.4781 26.0671 62.7958 26.3977C62.627 26.4822 62.4617 26.5666 62.3105 26.6616C61.15 27.3757 60.5697 28.3431 60.5697 29.5602C60.5697 29.7045 60.5802 29.8206 60.5943 29.9015H65.3631V29.803C65.3631 29.416 65.5424 29.1276 65.9046 28.9517C66.2704 28.7723 66.7065 28.6843 67.2094 28.6843C67.758 28.6843 68.2117 28.8145 68.5598 29.0713C68.9115 29.3316 69.0838 29.715 69.0838 30.2146V30.8478C67.0371 30.8478 65.3877 30.9674 64.1181 31.2136C62.8521 31.4563 61.885 31.9066 61.2098 32.5644C60.5627 33.1941 60.2251 34.1017 60.204 35.2802C60.2004 35.3259 60.2004 35.3752 60.2004 35.4209C60.2004 36.5149 60.5169 37.3592 61.1394 37.9537C61.8885 38.6678 63.0842 39.0266 64.7265 39.0266C65.7464 39.0266 66.6396 38.8789 67.4028 38.5869C68.1624 38.2949 68.8552 37.9009 69.4707 37.4155C69.6992 37.9185 70.1142 38.3125 70.7226 38.5975C71.331 38.8789 72.1047 39.0231 73.0472 39.0231C73.5325 39.0231 73.9616 38.9844 74.3379 38.9106C74.7107 38.8367 74.9955 38.7663 75.1995 38.6924C75.4035 38.6186 75.5336 38.5658 75.5793 38.5341V35.734H74.7036V35.7375ZM69.0838 34.2319C69.0838 34.7349 68.8447 35.1571 68.3664 35.4948C67.8881 35.8325 67.3324 36.0048 66.6959 36.0048C65.5952 36.0048 65.0466 35.6038 65.0466 34.7912C65.0466 34.2882 65.3736 33.8871 66.0277 33.5846C66.6854 33.2856 67.7052 33.1308 69.0838 33.1308V34.2284V34.2319Z" fill="white"/>
<path d="M30.6031 53.9843L28.8658 51.3107L26.6538 47.9055C27.4169 47.5467 28.0288 47.0753 28.4895 46.4949C28.6407 46.2979 28.7744 46.0974 28.8939 45.8757C29.3335 45.0702 29.534 44.2048 29.4918 43.2761C29.4883 43.1987 29.4812 43.1178 29.4742 43.0404C29.3933 42.1187 29.1049 41.285 28.6091 40.5392C28.1097 39.7935 27.4169 39.2306 26.5307 38.8401C25.6409 38.4567 24.6 38.316 23.4043 38.4215L13.2021 39.3186L14.6651 56L20.0246 55.5286L19.4901 49.4428L21.4771 49.2669L24.9657 55.0889L30.9759 54.5647L30.6031 53.9843ZM23.7032 44.8802C23.4394 45.2038 23.0983 45.3868 22.6763 45.4219L19.163 45.7315L18.8922 42.6534L22.4055 42.3439C22.824 42.3087 23.1968 42.4248 23.5098 42.6886C23.8263 42.9525 24.0021 43.3042 24.0408 43.7369C24.0795 44.1766 23.9669 44.5566 23.7032 44.8802Z" fill="white"/>
<path d="M40.6891 46.6953C40.6961 47.0189 40.6469 47.3848 40.5555 47.7893L40.4816 48.0954C40.0174 48.7427 39.2578 49.1683 38.3997 49.1683C37.0703 49.1683 35.9801 48.1622 35.8465 46.8677L35.8922 46.6812C35.9379 46.4877 35.9907 46.3013 36.0505 46.1325C36.5393 44.757 37.4642 44.2293 38.8463 44.5565C40.0596 44.8414 40.6715 45.5555 40.6891 46.6953Z" fill="black"/>
<path d="M56.374 47.0648C55.9978 48.0146 55.0693 48.6795 53.9932 48.6795C52.9171 48.6795 51.9324 47.9724 51.5772 46.9804L51.5701 46.8643C51.5666 46.7306 51.5666 46.6004 51.5701 46.4773C51.6194 44.8978 52.379 44.0782 53.8525 44.0254C55.3718 43.9726 56.2053 44.7677 56.3424 46.4105C56.353 46.4984 56.3565 46.5864 56.36 46.6813L56.374 47.0613V47.0648Z" fill="black"/>
<path d="M44.6346 44.6586C44.5537 44.5214 44.4729 44.3877 44.3814 44.2575C43.3897 42.8434 41.7966 41.8795 39.6056 41.3589C37.4112 40.8418 35.5578 40.986 34.0456 41.7986C33.1699 42.2665 32.456 42.9665 31.918 43.8987C31.5311 44.5601 31.2322 45.341 31.0247 46.231C30.9297 46.6391 30.8559 47.0296 30.8137 47.4095C30.6976 48.4543 30.782 49.3935 31.0669 50.2308C31.2287 50.7021 31.4502 51.1419 31.7386 51.5499C31.9531 51.8665 32.2028 52.155 32.4877 52.4188C33.4654 53.3581 34.8052 54.0265 36.5074 54.4345C38.6983 54.9516 40.5552 54.8074 42.0744 53.9878C43.3158 53.3229 44.2197 52.2148 44.7788 50.6705C44.9089 50.3222 45.0144 49.9564 45.1094 49.5694C45.5666 47.6346 45.4083 45.9988 44.6346 44.6586ZM40.5552 47.7894L40.4813 48.0955L40.2351 49.1402C39.8166 50.9062 38.8249 51.6062 37.2635 51.2368C35.7161 50.871 35.1534 49.8016 35.5719 48.0357L35.8462 46.8677L35.8919 46.6813C35.9376 46.4878 35.9904 46.3014 36.0502 46.1325C36.539 44.7571 37.4639 44.2294 38.846 44.5565C40.0593 44.8415 40.6712 45.5556 40.6888 46.6954C40.6958 47.019 40.6466 47.3849 40.5552 47.7894Z" fill="white"/>
<path d="M59.6519 42.7905C59.4866 42.6005 59.3002 42.4246 59.1033 42.2628C57.7704 41.1653 55.9804 40.6622 53.7261 40.7466C51.4754 40.8311 49.7275 41.4643 48.4896 42.6463C47.9481 43.1634 47.5331 43.7755 47.2482 44.4931C46.8754 45.4077 46.7102 46.4877 46.7559 47.7295C46.7981 48.8341 46.995 49.7979 47.3467 50.6246C47.7019 51.4443 48.2083 52.1232 48.8624 52.6685C50.1882 53.7555 51.9748 54.2585 54.229 54.1706C56.4798 54.0861 58.2311 53.4494 59.476 52.2569C60.0458 51.7187 60.4713 51.0714 60.7632 50.3256C61.1184 49.4286 61.2696 48.3803 61.2239 47.1842C61.1535 45.3268 60.6331 43.8599 59.6554 42.7905H59.6519ZM54.1059 50.8849C52.5163 50.9412 51.6899 50.0653 51.6231 48.2466L51.5774 46.9802L51.5703 46.8641C51.5668 46.7304 51.5668 46.6003 51.5703 46.4771C51.6196 44.8976 52.3792 44.078 53.8527 44.0252C55.372 43.9725 56.2055 44.7675 56.3426 46.4103C56.3532 46.4982 56.3567 46.5862 56.3602 46.6812L56.3742 47.0611L56.4129 48.0672C56.4797 49.8824 55.7096 50.8251 54.1059 50.8814V50.8849Z" fill="white"/>
</svg>
